<?xml version="1.0" encoding="utf-8"?><!DOCTYPE svg PUBLIC "-//W3C//DTD SVG 1.1//EN" "http://www.w3.org/Graphics/SVG/1.1/DTD/svg11.dtd">
<svg version="1.1" id="Layer_1" xmlns="http://www.w3.org/2000/svg" xmlns:xlink="http://www.w3.org/1999/xlink" x="0px" y="0px" width="841.89px" height="568.313px" viewBox="0 0 841.89 568.313" enable-background="new 0 0 841.89 568.313" xml:space="preserve">
<g>
	<g>
		<g>
			<g id="change1_1"><path fill="#202020" d="M482.854,530.451h18.428c4.844,0,8.498,0.778,10.975,2.26c2.479,1.485,3.725,3.704,3.725,6.584
				c0,3.23-1.469,5.482-4.449,6.893c-2.984,1.407-8.072,2.16-15.217,2.16h-13.461v-17.901V530.451z M139.765,530.451h18.428
				c4.837,0,8.496,0.778,10.97,2.26c2.481,1.485,3.73,3.704,3.73,6.584c0,3.23-1.574,5.482-4.554,6.893
				c-2.985,1.407-7.97,2.16-15.114,2.16h-13.46v-17.901V530.451z M278.077,530.351h23.396c1.8,0,2.96,0.184,3.625,0.515
				c0.666,0.33,1.038,0.828,1.038,1.641v3.089c0,0.837-0.372,1.419-1.038,1.749c-0.666,0.327-1.825,0.415-3.625,0.415h-23.396
				V530.351z M773.352,525.411v28.189h46.174v-5.244h-35.717v-6.998h20.604v-4.835h-20.604v-6.277h35.303v-4.835H773.352z
				 M709.27,525.411v5.044h20.5v23.146h10.35v-23.146h20.602v-5.044H709.27z M644.148,525.411v28.189h9.32v-15.227
				c0-0.573,0-1.181-0.109-1.95c-0.066-0.774-0.166-1.604-0.313-2.47c0.506,0.372,0.967,0.674,1.557,1.029
				c0.59,0.352,1.377,0.791,2.172,1.239l32.717,17.386h7.037V525.42h-9.318v14.816c0,0.355,0.068,0.892,0.109,1.544
				c0.063,0.657,0.164,1.813,0.318,3.395c-0.678-0.511-1.355-1.05-2.172-1.544c-0.824-0.494-1.729-0.988-2.797-1.545l-31.469-16.666
				h-7.041L644.148,525.411z M578.926,525.411v28.189h46.07v-5.244h-35.715v-6.998h20.6v-4.835h-20.6v-6.277h35.305v-4.835H578.926z
				 M545.799,553.601h10.35v-28.189h-10.35V553.601z M472.502,525.411v28.189h26.088c4.496,0,8.195-0.168,11.08-0.515
				c2.879-0.344,5.314-0.884,7.244-1.646c3.127-1.201,5.533-2.829,7.25-4.935c1.711-2.105,2.586-4.462,2.586-7.103
				c0-4.437-2.23-7.868-6.625-10.288c-4.412-2.406-10.66-3.704-18.844-3.704H472.502z M397.236,525.411v28.189h9.421v-15.227
				c0-0.573,0-1.181-0.104-1.95c-0.067-0.774-0.285-1.604-0.418-2.47c0.502,0.372,1.063,0.674,1.657,1.029
				c0.59,0.352,1.276,0.791,2.072,1.239l32.818,17.386h7.039V525.42h-9.316v14.816c0,0.355,0,0.892,0.105,1.544
				c0.066,0.657,0.146,1.813,0.313,3.395c-0.678-0.511-1.348-1.05-2.172-1.544s-1.729-0.988-2.795-1.545l-31.471-16.666h-7.145
				L397.236,525.411z M332.119,525.411v28.189h46.069v-5.244h-35.719v-6.998h20.605v-4.835h-20.605v-6.277h35.304v-4.835H332.119z
				 M267.826,525.411v28.189h10.25v-11.008h27.95c3.545,0,6.169-0.373,7.768-1.234c1.583-0.862,2.277-2.215,2.277-4.114v-6.379
				c0-1.909-0.694-3.252-2.277-4.114c-1.603-0.862-4.223-1.34-7.768-1.34H267.826z M202.604,525.411v28.189h46.069v-5.244h-35.714
				v-6.998h20.602v-4.835h-20.602v-6.277h35.3v-4.835H202.604z M129.41,525.411v28.189h25.986c4.497,0,8.196-0.168,11.075-0.515
				c2.884-0.344,5.32-0.884,7.25-1.646c3.126-1.201,5.529-2.829,7.25-4.935c1.711-2.105,2.587-4.462,2.587-7.103
				c0-4.437-2.231-7.868-6.626-10.288c-4.411-2.406-10.66-3.704-18.843-3.704H129.41z M54.146,525.411v28.189h9.317v-15.227
				c0-0.573,0-1.181-0.105-1.95c-0.105-0.774-0.188-1.604-0.31-2.47c0.503,0.372,1.063,0.674,1.658,1.029
				c0.59,0.352,1.28,0.791,2.071,1.239l32.714,17.386h7.145V525.42h-9.317v14.816c0,0.355,0,0.892,0.105,1.544
				c0.079,0.657,0.151,1.813,0.313,3.395c-0.674-0.511-1.456-1.05-2.277-1.544c-0.825-0.494-1.728-0.988-2.795-1.545L61.194,525.42
				h-7.04L54.146,525.411z M21.019,553.601h10.455v-28.189H21.019V553.601z M9.836,513.889h824.08v47.43H9.836V513.889z
				 M576.135,487.55l-5.906,7.408h12.012L576.135,487.55z M358.516,498.767h20.915V487.55h-20.915V498.767z M74.853,498.767h21.015
				V487.55H74.853V498.767z M800.479,484.26h27.951v3.189h-21.535v3.909h12.527v3.089h-12.527v4.424h21.844v3.395h-28.26V484.26z
				 M760.826,484.26h31.475v3.189h-12.633v14.813h-6.316v-14.813h-12.525V484.26z M720.344,484.26h4.35l22.156,11.934V484.26h5.693
				v18.002h-4.35l-22.049-12.138v12.138h-5.801V484.26z M682.867,484.26h27.955v3.189h-21.535v3.909h12.527v3.089h-12.527v4.424
				h21.844v3.395h-28.264V484.26z M635.66,484.26h5.072l12.736,10.698l12.732-10.698h5.072v18.002h-5.9v-12.447l-11.594,10.287
				h-1.244l-11.803-9.978v12.138h-5.072V484.26z M601.703,484.26h6.42v14.607h20.396v3.395h-26.816V484.26z M573.334,484.26h6.111
				l15.736,18.002h-7.145l-3.209-4.01h-17.291l-3.311,4.01h-6.316L573.334,484.26z M524.469,484.26h27.955v3.189h-21.533v3.909
				h12.525v3.089h-12.525v4.424h21.848v3.395h-28.27V484.26z M480.576,484.26h4.453l22.049,11.934V484.26h5.797v18.002h-4.449
				l-22.053-12.138v12.138h-5.797V484.26z M462.666,484.26h6.318v18.002h-6.318V484.26z M358.931,484.26h20.087
				c2.686,0,4.469,0.327,5.381,0.921c0.914,0.595,1.449,1.657,1.449,3.294v9.464c0,1.641-0.516,2.8-1.449,3.395
				c-0.933,0.594-2.737,0.925-5.381,0.925h-20.087c-2.67,0-4.458-0.327-5.382-0.925c-0.925-0.595-1.448-1.754-1.448-3.395v-9.464
				c0-1.637,0.523-2.699,1.448-3.294C354.473,484.591,356.26,484.26,358.931,484.26 M313.071,484.26h31.47v3.189H331.91v14.813
				h-6.312v-14.813h-12.526V484.26z M272.589,484.26h4.349l22.154,11.934V484.26h5.696v18.002h-4.348l-22.053-12.138v12.138h-5.798
				V484.26z M235.113,484.26h27.951v3.189h-21.535v3.909h12.528v3.089h-12.528v4.424h21.849v3.395h-28.265V484.26z M217.203,484.26
				h6.316v18.002h-6.316V484.26z M169.992,484.26h5.077l12.732,10.698l12.731-10.698h5.078v18.002h-5.902v-12.447l-11.597,10.287
				h-1.24l-11.802-9.978v12.138h-5.074V484.26H169.992z M152.083,484.26h6.315v18.002h-6.315V484.26z M109.533,484.26h7.248
				l11.075,13.063l10.355-13.063h6.625l-15.117,18.002h-4.345L109.533,484.26z M75.267,484.26h20.19c2.683,0,4.47,0.327,5.379,0.921
				c0.916,0.595,1.351,1.657,1.351,3.294v9.464c0,1.641-0.514,2.8-1.447,3.395c-0.934,0.594-2.633,0.925-5.283,0.925H75.271
				c-2.67,0-4.458-0.327-5.382-0.925c-0.929-0.595-1.353-1.754-1.353-3.395v-9.464c0-1.637,0.426-2.699,1.353-3.294
				c0.924-0.59,2.711-0.921,5.382-0.921H75.267z M422.914,480.351h7.449v17.692h23.816v4.219h-31.266V480.351z M14.394,480.351
				h6.001l14.908,13.168l14.704-13.168h5.897v21.911h-6.831V487.65c0-0.41,0.147-0.842,0.185-1.34
				c-0.401,0.565-0.737,1.08-1.038,1.44c-0.297,0.364-0.59,0.69-0.829,0.921l-11.904,10.907H34.04l-12.012-11.008
				c-0.439-0.423-0.829-0.766-1.139-1.135c-0.31-0.355-0.519-0.795-0.725-1.134c0.081,0.452,0.105,0.866,0.105,1.234
				c0,0.373,0.105,0.787,0.105,1.13v13.582h-6.002v-21.915L14.394,480.351z M716.619,224.177h101.045v5.558
				c-5.844,0.892-9.752,2.167-11.803,3.805c-1.947,1.711-3.006,4.83-3.006,9.363v196.603c0,4.537,0.951,7.492,2.9,9.054
				c1.947,1.485,5.855,2.825,11.904,4.014v5.658H716.619v-5.863c6.252-1.042,10.266-2.377,12.113-4.014
				c1.744-1.704,2.689-4.608,2.689-8.849V242.902c0-4.533-0.949-7.651-2.9-9.363c-1.945-1.637-5.855-2.913-11.902-3.805V224.177z
				 M20.395,224.177h90.172v5.658c-2.801,0.443-5.001,1.427-6.521,2.984c-1.44,1.565-2.173,3.779-2.173,6.379
				c0,1.339,0.624,3.043,1.763,5.349c0.602,1.042,1.045,2.004,1.348,2.674l63.773,123.253l67.708-123.253
				c1.208-2.009,2.104-3.674,2.481-4.938c0.457-1.188,0.624-2.411,0.624-3.599c0-2.308-0.682-4.086-1.967-5.35
				c-1.36-1.339-3.629-2.46-7.04-3.499v-5.658h87.793v5.658c-4.7,1.188-7.852,2.536-9.216,4.319
				c-1.444,1.712-2.072,4.658-2.072,8.748v196.603c0,4.236,0.729,7.241,2.172,8.953c1.516,1.783,4.563,3.018,9.112,3.909v5.863
				h-71.847v-5.863c4.55-0.896,7.597-2.126,9.108-3.909c1.443-1.712,2.176-4.717,2.176-8.953V289.712l-92.142,166.87l-87.995-166.87
				v149.792c0,4.533,0.636,7.492,2.07,9.054c1.437,1.481,4.328,2.767,8.798,3.809v5.863H20.399v-5.863
				c4.7-1.193,7.852-2.583,9.217-4.219c1.44-1.712,2.071-4.554,2.071-8.644V242.902c0-4.387-0.731-7.346-2.172-9.053
				c-1.515-1.641-4.562-2.975-9.112-4.014v-5.658H20.395z M414.835,207.715l34.167,38.582l34.162,38.581l-42.342-0.1v128.498
				l137.689-0.507l-0.184-25.724l59.629,23.354l59.74,23.46l-59.426,22.32l-59.324,22.325l-0.184-25.925l-137.898,0.415v0.184
				h-61.292V284.765h-37.581l36.444-38.581l36.438-38.478L414.835,207.715z M0.004,0v568.313h841.885V195.988h-60.877l-9.213-53.499
				l-60.668,32.613l-34.68,18.621l-8.902-51.234l-60.668,32.613l-36.338,19.55l-9.111-52.164l-60.668,32.613l-38.307,20.576
				l-9.211-53.189l-60.668,32.613l-38.82,20.886h-5.491l-9.317-53.499l-60.668,32.613l-38.82,20.886h-0.728V47.839H134.587v148.149
				h-33.442V0H0H0.004z"></path></g>
		</g>
	</g>
</g>
<g>
</g>
<g>
</g>
<g>
</g>
<g>
</g>
<g>
</g>
<g>
</g>
</svg>